<svg xmlns="http://www.w3.org/2000/svg" xmlns:xlink="http://www.w3.org/1999/xlink" width="74" zoomAndPan="magnify" viewBox="0 0 55.5 59.249999" height="79" preserveAspectRatio="xMidYMid meet" version="1.0"><defs><clipPath id="23abd22f07"><path d="M 4 1 L 50.003906 1 L 50.003906 56.792969 L 4 56.792969 Z M 4 1 " clip-rule="nonzero"/></clipPath></defs><g clip-path="url(#23abd22f07)"><path fill="#ffffff" d="M 23.191406 41.640625 C 31.371094 42.203125 39.519531 40.402344 46.648438 36.507812 C 48.617188 33.316406 49.738281 29.738281 50.003906 26.140625 C 43.328125 34.34375 31.988281 37.003906 22.367188 32.652344 C 12.710938 28.28125 7.234375 17.96875 8.9375 7.515625 C 5.121094 13.421875 3.667969 20.453125 4.738281 27.253906 L 4.738281 27.320312 C 5.054688 29.738281 5.738281 32.132812 6.824219 34.375 L 6.824219 34.410156 C 6.890625 34.496094 6.9375 34.617188 6.96875 34.695312 C 7.058594 34.839844 7.113281 34.984375 7.210938 35.113281 L 7.210938 35.148438 C 7.277344 35.257812 7.355469 35.425781 7.417969 35.535156 L 7.417969 35.566406 C 7.597656 35.84375 7.738281 36.097656 7.914062 36.394531 C 8.15625 36.78125 8.410156 37.203125 8.683594 37.578125 L 8.71875 37.609375 C 8.804688 37.71875 8.894531 37.851562 8.980469 37.964844 L 8.980469 37.996094 C 9.191406 38.273438 9.367188 38.492188 9.574219 38.769531 C 9.992188 39.265625 10.398438 39.753906 10.871094 40.25 C 10.984375 40.359375 11.113281 40.492188 11.226562 40.601562 L 27.3125 56.753906 L 35.671875 48.363281 C 32.042969 48.75 28.105469 48.472656 23.785156 47.535156 C 28.578125 47.855469 33.320312 47.390625 37.882812 46.144531 L 43.449219 40.589844 C 43.722656 40.304688 44.007812 39.996094 44.273438 39.707031 C 38.542969 42.800781 31.539062 43.441406 23.191406 41.640625 Z M 26.402344 21.933594 C 25.3125 24.945312 21.132812 25.15625 18.78125 23.554688 C 16.601562 22.078125 15.691406 19.304688 16.546875 16.789062 C 17.667969 17.03125 18.636719 17.769531 19.164062 18.796875 C 17.835938 15.429688 14.832031 13.035156 11.269531 12.539062 C 14.722656 17.980469 13.3125 28.347656 23.75 26.800781 L 27.777344 31.019531 C 28.128906 31.40625 28.578125 31.582031 29.074219 31.582031 C 29.570312 31.582031 29.988281 31.40625 30.339844 31.019531 L 34.363281 26.800781 C 44.8125 28.335938 43.425781 17.957031 46.847656 12.527344 C 43.316406 13.023438 40.28125 15.417969 38.984375 18.785156 C 39.476562 17.761719 40.457031 17.007812 41.566406 16.777344 C 42.445312 19.292969 41.535156 22.066406 39.335938 23.546875 C 36.980469 25.136719 32.800781 24.9375 31.714844 21.921875 C 28.917969 14.09375 47.96875 15.1875 49.34375 6.796875 C 44.601562 10.902344 36.828125 12.96875 29.0625 12.96875 C 33.503906 12.96875 37.773438 10.550781 41.191406 6.234375 C 33.824219 0.570312 23.695312 0.0390625 15.777344 4.675781 C 19.375 9.964844 24.101562 12.980469 29.074219 12.980469 C 21.308594 12.980469 13.5 10.914062 8.761719 6.808594 C 10.15625 15.199219 29.207031 14.09375 26.402344 21.933594 Z M 28.679688 28.546875 L 26.324219 26.238281 L 29.085938 23.367188 L 31.824219 26.238281 L 29.503906 28.546875 C 29.261719 28.757812 28.875 28.757812 28.679688 28.546875 Z M 36.761719 22.640625 C 35.351562 22.75 34.054688 21.789062 33.792969 20.367188 C 33.527344 18.953125 34.386719 17.5625 35.761719 17.140625 C 35.761719 18.023438 36.179688 18.886719 36.882812 19.417969 C 37.585938 19.945312 38.5 20.121094 39.355469 19.878906 C 39.34375 21.347656 38.210938 22.519531 36.761719 22.640625 Z M 21.363281 22.640625 C 22.804688 22.75 24.070312 21.789062 24.332031 20.367188 C 24.597656 18.953125 23.738281 17.5625 22.367188 17.140625 C 22.367188 18.023438 21.949219 18.886719 21.242188 19.417969 C 20.574219 19.945312 19.660156 20.121094 18.800781 19.878906 C 18.824219 21.347656 19.933594 22.519531 21.363281 22.640625 Z M 21.363281 22.640625 " fill-opacity="1" fill-rule="evenodd"/></g></svg>