<svg xmlns="http://www.w3.org/2000/svg" xmlns:xlink="http://www.w3.org/1999/xlink" width="314" zoomAndPan="magnify" viewBox="0 0 235.5 60" height="80" preserveAspectRatio="xMidYMid meet" version="1.0"><defs><g/><clipPath id="1cb1d35a98"><path d="M 10 1 L 58.574219 1 L 58.574219 59.933594 L 10 59.933594 Z M 10 1 " clip-rule="nonzero"/></clipPath></defs><g clip-path="url(#1cb1d35a98)"><path fill="#319795" d="M 30.65625 44.054688 C 39.394531 44.648438 48.101562 42.746094 55.714844 38.628906 C 57.820312 35.257812 59.019531 31.480469 59.300781 27.679688 C 52.167969 36.34375 40.054688 39.15625 29.773438 34.558594 C 19.457031 29.941406 13.605469 19.046875 15.425781 8.003906 C 11.351562 14.242188 9.800781 21.671875 10.9375 28.855469 L 10.9375 28.925781 C 11.28125 31.480469 12.007812 34.011719 13.171875 36.378906 L 13.171875 36.414062 C 13.242188 36.507812 13.289062 36.636719 13.324219 36.71875 C 13.417969 36.867188 13.476562 37.019531 13.582031 37.160156 L 13.582031 37.195312 C 13.652344 37.3125 13.734375 37.488281 13.804688 37.605469 L 13.804688 37.640625 C 13.992188 37.929688 14.148438 38.199219 14.335938 38.511719 C 14.59375 38.921875 14.863281 39.363281 15.15625 39.761719 L 15.191406 39.796875 C 15.285156 39.914062 15.378906 40.054688 15.472656 40.167969 L 15.472656 40.203125 C 15.699219 40.496094 15.886719 40.730469 16.109375 41.019531 C 16.554688 41.546875 16.988281 42.058594 17.496094 42.582031 C 17.613281 42.699219 17.753906 42.839844 17.871094 42.957031 L 35.0625 60.019531 L 43.988281 51.15625 C 40.113281 51.566406 35.90625 51.273438 31.289062 50.28125 C 36.410156 50.621094 41.476562 50.128906 46.351562 48.8125 L 52.296875 42.945312 C 52.589844 42.640625 52.894531 42.316406 53.179688 42.011719 C 47.058594 45.277344 39.574219 45.953125 30.65625 44.054688 Z M 34.085938 23.234375 C 32.921875 26.417969 28.457031 26.640625 25.941406 24.949219 C 23.617188 23.386719 22.640625 20.457031 23.558594 17.800781 C 24.757812 18.054688 25.789062 18.835938 26.355469 19.921875 C 24.933594 16.363281 21.726562 13.835938 17.917969 13.308594 C 21.609375 19.058594 20.105469 30.011719 31.253906 28.378906 L 35.554688 32.832031 C 35.929688 33.242188 36.410156 33.429688 36.941406 33.429688 C 37.46875 33.429688 37.914062 33.242188 38.292969 32.832031 L 42.59375 28.378906 C 53.753906 30 52.273438 19.035156 55.925781 13.296875 C 52.15625 13.824219 48.914062 16.355469 47.527344 19.910156 C 48.054688 18.824219 49.101562 18.03125 50.289062 17.789062 C 51.226562 20.449219 50.253906 23.375 47.902344 24.9375 C 45.386719 26.617188 40.921875 26.40625 39.761719 23.222656 C 36.777344 14.953125 57.125 16.109375 58.59375 7.246094 C 53.53125 11.582031 45.222656 13.765625 36.929688 13.765625 C 41.675781 13.765625 46.234375 11.210938 49.886719 6.648438 C 42.015625 0.667969 31.195312 0.105469 22.734375 5.003906 C 26.578125 10.59375 31.628906 13.777344 36.941406 13.777344 C 28.644531 13.777344 20.304688 11.59375 15.238281 7.257812 C 16.730469 16.121094 37.082031 14.953125 34.085938 23.234375 Z M 36.519531 30.222656 L 34.003906 27.785156 L 36.953125 24.75 L 39.878906 27.785156 L 37.398438 30.222656 C 37.140625 30.441406 36.730469 30.441406 36.519531 30.222656 Z M 45.152344 23.980469 C 43.648438 24.097656 42.261719 23.082031 41.980469 21.578125 C 41.699219 20.085938 42.617188 18.617188 44.085938 18.171875 C 44.085938 19.105469 44.53125 20.015625 45.28125 20.574219 C 46.035156 21.136719 47.011719 21.320312 47.925781 21.066406 C 47.914062 22.617188 46.703125 23.851562 45.152344 23.980469 Z M 28.703125 23.980469 C 30.242188 24.097656 31.59375 23.082031 31.875 21.578125 C 32.160156 20.085938 31.242188 18.617188 29.773438 18.171875 C 29.773438 19.105469 29.328125 20.015625 28.574219 20.574219 C 27.859375 21.136719 26.882812 21.320312 25.964844 21.066406 C 25.988281 22.617188 27.175781 23.851562 28.703125 23.980469 Z M 28.703125 23.980469 " fill-opacity="1" fill-rule="evenodd"/></g><g fill="#2f3748" fill-opacity="1"><g transform="translate(68.354583, 39.756918)"><g><path d="M 1.84375 0 L 1.84375 -21.140625 L 10.1875 -21.140625 C 11.789062 -21.140625 13.15625 -20.832031 14.28125 -20.21875 C 15.40625 -19.613281 16.265625 -18.773438 16.859375 -17.703125 C 17.460938 -16.628906 17.765625 -15.390625 17.765625 -13.984375 C 17.765625 -12.578125 17.457031 -11.335938 16.84375 -10.265625 C 16.238281 -9.191406 15.363281 -8.351562 14.21875 -7.75 C 13.070312 -7.15625 11.6875 -6.859375 10.0625 -6.859375 L 6.3125 -6.859375 L 6.3125 0 Z M 6.3125 -10.4375 L 9.34375 -10.4375 C 10.625 -10.4375 11.578125 -10.765625 12.203125 -11.421875 C 12.835938 -12.078125 13.15625 -12.929688 13.15625 -13.984375 C 13.15625 -15.035156 12.835938 -15.882812 12.203125 -16.53125 C 11.578125 -17.175781 10.617188 -17.5 9.328125 -17.5 L 6.3125 -17.5 Z M 6.3125 -10.4375 "/></g></g></g><g fill="#2f3748" fill-opacity="1"><g transform="translate(87.190079, 39.756918)"><g><path d="M 1.75 0 L 1.75 -15.859375 L 6.015625 -15.859375 L 6.015625 -13.09375 L 6.1875 -13.09375 C 6.476562 -14.070312 6.960938 -14.816406 7.640625 -15.328125 C 8.316406 -15.835938 9.101562 -16.09375 10 -16.09375 C 10.425781 -16.09375 10.820312 -16.039062 11.1875 -15.9375 C 11.550781 -15.832031 11.878906 -15.691406 12.171875 -15.515625 L 10.84375 -11.875 C 10.632812 -11.976562 10.40625 -12.066406 10.15625 -12.140625 C 9.914062 -12.210938 9.644531 -12.25 9.34375 -12.25 C 8.457031 -12.25 7.707031 -11.941406 7.09375 -11.328125 C 6.476562 -10.722656 6.164062 -9.9375 6.15625 -8.96875 L 6.15625 0 Z M 1.75 0 "/></g></g></g><g fill="#2f3748" fill-opacity="1"><g transform="translate(99.65414, 39.756918)"><g><path d="M 8.984375 0.3125 C 7.359375 0.3125 5.957031 -0.0195312 4.78125 -0.6875 C 3.601562 -1.351562 2.695312 -2.296875 2.0625 -3.515625 C 1.425781 -4.734375 1.109375 -6.179688 1.109375 -7.859375 C 1.109375 -9.492188 1.425781 -10.925781 2.0625 -12.15625 C 2.695312 -13.382812 3.585938 -14.34375 4.734375 -15.03125 C 5.890625 -15.71875 7.25 -16.0625 8.8125 -16.0625 C 10.207031 -16.0625 11.46875 -15.765625 12.59375 -15.171875 C 13.71875 -14.585938 14.609375 -13.695312 15.265625 -12.5 C 15.929688 -11.300781 16.265625 -9.804688 16.265625 -8.015625 L 16.265625 -6.8125 L 5.46875 -6.8125 L 5.46875 -6.796875 C 5.46875 -5.609375 5.789062 -4.671875 6.4375 -3.984375 C 7.082031 -3.304688 7.957031 -2.96875 9.0625 -2.96875 C 9.789062 -2.96875 10.421875 -3.125 10.953125 -3.4375 C 11.492188 -3.75 11.878906 -4.207031 12.109375 -4.8125 L 16.171875 -4.546875 C 15.859375 -3.066406 15.070312 -1.882812 13.8125 -1 C 12.550781 -0.125 10.941406 0.3125 8.984375 0.3125 Z M 5.46875 -9.53125 L 12.125 -9.53125 C 12.113281 -10.476562 11.804688 -11.253906 11.203125 -11.859375 C 10.609375 -12.472656 9.832031 -12.78125 8.875 -12.78125 C 7.90625 -12.78125 7.101562 -12.460938 6.46875 -11.828125 C 5.84375 -11.203125 5.507812 -10.4375 5.46875 -9.53125 Z M 5.46875 -9.53125 "/></g></g></g><g fill="#2f3748" fill-opacity="1"><g transform="translate(117.033583, 39.756918)"><g><path d="M 1.75 5.953125 L 1.75 -15.859375 L 6.09375 -15.859375 L 6.09375 -13.203125 L 6.28125 -13.203125 C 6.488281 -13.628906 6.773438 -14.0625 7.140625 -14.5 C 7.503906 -14.945312 7.984375 -15.316406 8.578125 -15.609375 C 9.179688 -15.910156 9.921875 -16.0625 10.796875 -16.0625 C 11.960938 -16.0625 13.03125 -15.757812 14 -15.15625 C 14.96875 -14.5625 15.742188 -13.660156 16.328125 -12.453125 C 16.921875 -11.242188 17.21875 -9.726562 17.21875 -7.90625 C 17.21875 -6.132812 16.929688 -4.640625 16.359375 -3.421875 C 15.796875 -2.210938 15.023438 -1.296875 14.046875 -0.671875 C 13.078125 -0.046875 11.992188 0.265625 10.796875 0.265625 C 9.941406 0.265625 9.210938 0.125 8.609375 -0.15625 C 8.015625 -0.445312 7.53125 -0.804688 7.15625 -1.234375 C 6.78125 -1.660156 6.488281 -2.097656 6.28125 -2.546875 L 6.15625 -2.546875 L 6.15625 5.953125 Z M 6.0625 -7.9375 C 6.0625 -6.519531 6.351562 -5.382812 6.9375 -4.53125 C 7.519531 -3.675781 8.335938 -3.25 9.390625 -3.25 C 10.472656 -3.25 11.300781 -3.679688 11.875 -4.546875 C 12.445312 -5.421875 12.734375 -6.550781 12.734375 -7.9375 C 12.734375 -9.3125 12.445312 -10.425781 11.875 -11.28125 C 11.3125 -12.132812 10.484375 -12.5625 9.390625 -12.5625 C 8.328125 -12.5625 7.503906 -12.144531 6.921875 -11.3125 C 6.347656 -10.476562 6.0625 -9.351562 6.0625 -7.9375 Z M 6.0625 -7.9375 "/></g></g></g><g fill="#2f3748" fill-opacity="1"><g transform="translate(135.425019, 39.756918)"><g><path d="M 6.28125 0.296875 C 4.757812 0.296875 3.5 -0.0976562 2.5 -0.890625 C 1.507812 -1.679688 1.015625 -2.863281 1.015625 -4.4375 C 1.015625 -5.613281 1.289062 -6.539062 1.84375 -7.21875 C 2.40625 -7.894531 3.140625 -8.390625 4.046875 -8.703125 C 4.953125 -9.015625 5.925781 -9.21875 6.96875 -9.3125 C 8.34375 -9.445312 9.328125 -9.585938 9.921875 -9.734375 C 10.515625 -9.890625 10.8125 -10.222656 10.8125 -10.734375 L 10.8125 -10.796875 C 10.8125 -11.453125 10.601562 -11.957031 10.1875 -12.3125 C 9.78125 -12.675781 9.203125 -12.859375 8.453125 -12.859375 C 7.660156 -12.859375 7.03125 -12.6875 6.5625 -12.34375 C 6.09375 -12 5.785156 -11.5625 5.640625 -11.03125 L 1.5625 -11.359375 C 1.875 -12.804688 2.628906 -13.953125 3.828125 -14.796875 C 5.023438 -15.640625 6.578125 -16.0625 8.484375 -16.0625 C 9.660156 -16.0625 10.757812 -15.875 11.78125 -15.5 C 12.8125 -15.132812 13.640625 -14.554688 14.265625 -13.765625 C 14.890625 -12.984375 15.203125 -11.960938 15.203125 -10.703125 L 15.203125 0 L 11.03125 0 L 11.03125 -2.203125 L 10.921875 -2.203125 C 10.535156 -1.460938 9.957031 -0.859375 9.1875 -0.390625 C 8.414062 0.0664062 7.445312 0.296875 6.28125 0.296875 Z M 7.53125 -2.734375 C 8.5 -2.734375 9.289062 -3.015625 9.90625 -3.578125 C 10.53125 -4.140625 10.84375 -4.835938 10.84375 -5.671875 L 10.84375 -7.359375 C 10.664062 -7.234375 10.394531 -7.125 10.03125 -7.03125 C 9.675781 -6.945312 9.289062 -6.875 8.875 -6.8125 C 8.46875 -6.75 8.101562 -6.691406 7.78125 -6.640625 C 7.007812 -6.523438 6.390625 -6.304688 5.921875 -5.984375 C 5.453125 -5.660156 5.21875 -5.191406 5.21875 -4.578125 C 5.21875 -3.972656 5.4375 -3.515625 5.875 -3.203125 C 6.3125 -2.890625 6.863281 -2.734375 7.53125 -2.734375 Z M 7.53125 -2.734375 "/></g></g></g><g fill="#2f3748" fill-opacity="1"><g transform="translate(152.298466, 39.756918)"><g><path d="M 6.15625 -21.140625 L 6.15625 0 L 1.75 0 L 1.75 -21.140625 Z M 6.15625 -21.140625 "/></g></g></g><g fill="#2f3748" fill-opacity="1"><g transform="translate(160.208523, 39.756918)"><g><path d="M 1.75 0 L 1.75 -15.859375 L 6.15625 -15.859375 L 6.15625 0 Z M 3.96875 -17.90625 C 3.320312 -17.90625 2.765625 -18.125 2.296875 -18.5625 C 1.828125 -19 1.59375 -19.523438 1.59375 -20.140625 C 1.59375 -20.753906 1.828125 -21.273438 2.296875 -21.703125 C 2.765625 -22.140625 3.320312 -22.359375 3.96875 -22.359375 C 4.625 -22.359375 5.1875 -22.140625 5.65625 -21.703125 C 6.125 -21.273438 6.359375 -20.753906 6.359375 -20.140625 C 6.359375 -19.523438 6.125 -19 5.65625 -18.5625 C 5.1875 -18.125 4.625 -17.90625 3.96875 -17.90625 Z M 3.96875 -17.90625 "/></g></g></g><g fill="#2f3748" fill-opacity="1"><g transform="translate(168.11858, 39.756918)"><g><path d="M 1.84375 0 L 1.84375 -21.140625 L 6.234375 -21.140625 L 6.234375 -13.203125 L 6.375 -13.203125 C 6.570312 -13.628906 6.851562 -14.0625 7.21875 -14.5 C 7.582031 -14.945312 8.0625 -15.316406 8.65625 -15.609375 C 9.257812 -15.910156 10.003906 -16.0625 10.890625 -16.0625 C 12.046875 -16.0625 13.109375 -15.757812 14.078125 -15.15625 C 15.054688 -14.5625 15.835938 -13.660156 16.421875 -12.453125 C 17.015625 -11.242188 17.3125 -9.726562 17.3125 -7.90625 C 17.3125 -6.132812 17.023438 -4.640625 16.453125 -3.421875 C 15.878906 -2.210938 15.109375 -1.296875 14.140625 -0.671875 C 13.171875 -0.046875 12.082031 0.265625 10.875 0.265625 C 10.019531 0.265625 9.296875 0.125 8.703125 -0.15625 C 8.109375 -0.445312 7.625 -0.804688 7.25 -1.234375 C 6.875 -1.660156 6.582031 -2.097656 6.375 -2.546875 L 6.171875 -2.546875 L 6.171875 0 Z M 6.140625 -7.9375 C 6.140625 -6.519531 6.429688 -5.382812 7.015625 -4.53125 C 7.597656 -3.675781 8.421875 -3.25 9.484375 -3.25 C 10.554688 -3.25 11.378906 -3.679688 11.953125 -4.546875 C 12.523438 -5.421875 12.8125 -6.550781 12.8125 -7.9375 C 12.8125 -9.3125 12.523438 -10.425781 11.953125 -11.28125 C 11.390625 -12.132812 10.566406 -12.5625 9.484375 -12.5625 C 8.410156 -12.5625 7.582031 -12.144531 7 -11.3125 C 6.425781 -10.476562 6.140625 -9.351562 6.140625 -7.9375 Z M 6.140625 -7.9375 "/></g></g></g><g fill="#2f3748" fill-opacity="1"><g transform="translate(186.592623, 39.756918)"><g><path d="M 4.328125 0.265625 C 3.640625 0.265625 3.050781 0.0234375 2.5625 -0.453125 C 2.082031 -0.929688 1.84375 -1.515625 1.84375 -2.203125 C 1.84375 -2.878906 2.082031 -3.457031 2.5625 -3.9375 C 3.050781 -4.425781 3.640625 -4.671875 4.328125 -4.671875 C 4.984375 -4.671875 5.554688 -4.425781 6.046875 -3.9375 C 6.546875 -3.457031 6.800781 -2.878906 6.8125 -2.203125 C 6.800781 -1.515625 6.546875 -0.929688 6.046875 -0.453125 C 5.554688 0.0234375 4.984375 0.265625 4.328125 0.265625 Z M 4.328125 0.265625 "/></g></g></g></svg>