<svg xmlns="http://www.w3.org/2000/svg" xmlns:xlink="http://www.w3.org/1999/xlink" width="80" zoomAndPan="magnify" viewBox="0 0 60 60" height="80" preserveAspectRatio="xMidYMid meet" version="1.0"><defs><clipPath id="2697b305ea"><path d="M 12 10 L 44.898438 10 L 44.898438 50.152344 L 12 50.152344 Z M 12 10 " clip-rule="nonzero"/></clipPath></defs><g clip-path="url(#2697b305ea)"><path fill="#319795" d="M 25.804688 39.347656 C 31.632812 39.75 37.433594 38.464844 42.511719 35.6875 C 43.914062 33.410156 44.710938 30.859375 44.898438 28.292969 C 40.144531 34.144531 32.070312 36.042969 25.214844 32.9375 C 18.339844 29.820312 14.4375 22.464844 15.652344 15.007812 C 12.933594 19.222656 11.898438 24.238281 12.660156 29.089844 L 12.660156 29.136719 C 12.886719 30.859375 13.371094 32.570312 14.148438 34.167969 L 14.148438 34.191406 C 14.195312 34.253906 14.226562 34.339844 14.25 34.394531 C 14.3125 34.496094 14.351562 34.601562 14.421875 34.695312 L 14.421875 34.71875 C 14.46875 34.796875 14.523438 34.914062 14.570312 34.992188 L 14.570312 35.015625 C 14.695312 35.214844 14.796875 35.394531 14.921875 35.609375 C 15.097656 35.882812 15.277344 36.183594 15.472656 36.449219 L 15.496094 36.472656 C 15.558594 36.554688 15.621094 36.648438 15.683594 36.726562 L 15.683594 36.75 C 15.832031 36.945312 15.957031 37.105469 16.105469 37.300781 C 16.402344 37.65625 16.695312 38 17.03125 38.355469 C 17.109375 38.433594 17.203125 38.53125 17.28125 38.609375 L 28.742188 50.128906 L 34.695312 44.144531 C 32.109375 44.417969 29.304688 44.222656 26.226562 43.554688 C 29.640625 43.78125 33.019531 43.449219 36.269531 42.5625 L 40.230469 38.601562 C 40.425781 38.394531 40.632812 38.175781 40.820312 37.96875 C 36.738281 40.175781 31.75 40.632812 25.804688 39.347656 Z M 28.089844 25.292969 C 27.316406 27.441406 24.339844 27.59375 22.664062 26.449219 C 21.113281 25.394531 20.460938 23.417969 21.074219 21.625 C 21.871094 21.796875 22.5625 22.324219 22.9375 23.054688 C 21.988281 20.65625 19.851562 18.945312 17.3125 18.589844 C 19.773438 22.472656 18.769531 29.867188 26.203125 28.765625 L 29.070312 31.773438 C 29.320312 32.050781 29.640625 32.175781 29.996094 32.175781 C 30.347656 32.175781 30.644531 32.050781 30.894531 31.773438 L 33.761719 28.765625 C 41.203125 29.859375 40.214844 22.457031 42.652344 18.582031 C 40.136719 18.9375 37.976562 20.648438 37.050781 23.046875 C 37.402344 22.316406 38.101562 21.78125 38.890625 21.617188 C 39.519531 23.410156 38.867188 25.386719 37.300781 26.441406 C 35.625 27.578125 32.648438 27.433594 31.875 25.285156 C 29.882812 19.703125 43.449219 20.480469 44.429688 14.496094 C 41.054688 17.425781 35.515625 18.898438 29.988281 18.898438 C 33.152344 18.898438 36.191406 17.175781 38.625 14.09375 C 33.378906 10.054688 26.164062 9.679688 20.523438 12.984375 C 23.085938 16.757812 26.453125 18.90625 29.996094 18.90625 C 24.464844 18.90625 18.902344 17.433594 15.527344 14.503906 C 16.523438 20.488281 30.089844 19.703125 28.089844 25.292969 Z M 29.710938 30.007812 L 28.035156 28.363281 L 30.003906 26.316406 L 31.953125 28.363281 L 30.300781 30.007812 C 30.128906 30.160156 29.851562 30.160156 29.710938 30.007812 Z M 35.46875 25.796875 C 34.464844 25.875 33.542969 25.191406 33.355469 24.175781 C 33.167969 23.167969 33.777344 22.175781 34.757812 21.875 C 34.757812 22.503906 35.054688 23.121094 35.554688 23.496094 C 36.058594 23.875 36.707031 24 37.316406 23.828125 C 37.308594 24.875 36.503906 25.710938 35.46875 25.796875 Z M 24.503906 25.796875 C 25.53125 25.875 26.429688 25.191406 26.617188 24.175781 C 26.804688 23.167969 26.195312 22.175781 25.214844 21.875 C 25.214844 22.503906 24.917969 23.121094 24.417969 23.496094 C 23.9375 23.875 23.289062 24 22.679688 23.828125 C 22.695312 24.875 23.484375 25.710938 24.503906 25.796875 Z M 24.503906 25.796875 " fill-opacity="1" fill-rule="evenodd"/></g></svg>