<svg xmlns="http://www.w3.org/2000/svg" xmlns:xlink="http://www.w3.org/1999/xlink" width="900" zoomAndPan="magnify" viewBox="0 0 675 182.249993" height="243" preserveAspectRatio="xMidYMid meet" version="1.0"><defs><g/><clipPath id="1b17297275"><path d="M 1.382812 0 L 673.617188 0 L 673.617188 181.503906 L 1.382812 181.503906 Z M 1.382812 0 " clip-rule="nonzero"/></clipPath><clipPath id="faba45321f"><path d="M 159 35 L 252.488281 35 L 252.488281 148.59375 L 159 148.59375 Z M 159 35 " clip-rule="nonzero"/></clipPath></defs><g clip-path="url(#1b17297275)"><path fill="#ffffff" d="M 1.382812 0 L 673.617188 0 L 673.617188 188.972656 L 1.382812 188.972656 Z M 1.382812 0 " fill-opacity="1" fill-rule="nonzero"/><path fill="#ffffff" d="M 1.382812 0 L 673.617188 0 L 673.617188 181.503906 L 1.382812 181.503906 Z M 1.382812 0 " fill-opacity="1" fill-rule="nonzero"/></g><g clip-path="url(#faba45321f)"><path fill="#ffffff" d="M 197.59375 117.707031 C 214.34375 118.855469 231.027344 115.1875 245.621094 107.242188 C 249.648438 100.734375 251.945312 93.441406 252.488281 86.105469 C 238.820312 102.828125 215.605469 108.253906 195.902344 99.386719 C 176.136719 90.472656 164.921875 69.449219 168.414062 48.132812 C 160.597656 60.175781 157.628906 74.511719 159.8125 88.378906 L 159.8125 88.515625 C 160.464844 93.441406 161.859375 98.328125 164.089844 102.898438 L 164.089844 102.964844 C 164.222656 103.144531 164.3125 103.390625 164.382812 103.550781 C 164.5625 103.84375 164.675781 104.132812 164.878906 104.40625 L 164.878906 104.472656 C 165.011719 104.695312 165.171875 105.035156 165.304688 105.261719 L 165.304688 105.328125 C 165.664062 105.890625 165.957031 106.40625 166.316406 107.015625 C 166.8125 107.804688 167.332031 108.660156 167.894531 109.425781 L 167.960938 109.492188 C 168.140625 109.714844 168.320312 109.988281 168.503906 110.210938 L 168.503906 110.277344 C 168.929688 110.84375 169.289062 111.292969 169.71875 111.855469 C 170.574219 112.867188 171.40625 113.859375 172.375 114.871094 C 172.601562 115.097656 172.871094 115.367188 173.09375 115.589844 L 206.035156 148.519531 L 223.148438 131.414062 C 215.71875 132.203125 207.65625 131.640625 198.808594 129.726562 C 208.625 130.378906 218.328125 129.433594 227.675781 126.890625 L 239.066406 115.570312 C 239.628906 114.984375 240.214844 114.351562 240.757812 113.769531 C 229.023438 120.070312 214.683594 121.375 197.59375 117.707031 Z M 204.167969 77.53125 C 201.9375 83.675781 193.382812 84.101562 188.5625 80.839844 C 184.105469 77.820312 182.238281 72.171875 183.992188 67.039062 C 186.289062 67.535156 188.269531 69.042969 189.351562 71.136719 C 186.628906 64.273438 180.480469 59.386719 173.1875 58.375 C 180.253906 69.472656 177.375 90.605469 198.742188 87.457031 L 206.980469 96.054688 C 207.703125 96.839844 208.625 97.203125 209.640625 97.203125 C 210.652344 97.203125 211.507812 96.839844 212.226562 96.054688 L 220.46875 87.457031 C 241.859375 90.585938 239.023438 69.425781 246.023438 58.351562 C 238.796875 59.367188 232.582031 64.25 229.925781 71.113281 C 230.9375 69.019531 232.941406 67.492188 235.21875 67.019531 C 237.019531 72.148438 235.148438 77.800781 230.644531 80.816406 C 225.828125 84.058594 217.273438 83.652344 215.042969 77.507812 C 209.324219 61.546875 248.320312 63.777344 251.136719 46.671875 C 241.429688 55.042969 225.511719 59.253906 209.617188 59.253906 C 218.710938 59.253906 227.449219 54.324219 234.453125 45.523438 C 219.367188 33.976562 198.628906 32.894531 182.417969 42.347656 C 189.78125 53.128906 199.460938 59.273438 209.640625 59.273438 C 193.742188 59.273438 177.757812 55.066406 168.050781 46.691406 C 170.910156 63.800781 209.910156 61.546875 204.167969 77.53125 Z M 208.828125 91.011719 L 204.011719 86.308594 L 209.660156 80.457031 L 215.269531 86.308594 L 210.515625 91.011719 C 210.023438 91.441406 209.234375 91.441406 208.828125 91.011719 Z M 225.378906 78.96875 C 222.496094 79.195312 219.839844 77.238281 219.296875 74.332031 C 218.757812 71.453125 220.515625 68.617188 223.328125 67.761719 C 223.328125 69.5625 224.183594 71.316406 225.625 72.398438 C 227.066406 73.476562 228.933594 73.839844 230.691406 73.34375 C 230.667969 76.335938 228.351562 78.722656 225.378906 78.96875 Z M 193.855469 78.96875 C 196.804688 79.195312 199.394531 77.238281 199.933594 74.332031 C 200.476562 71.453125 198.71875 68.617188 195.902344 67.761719 C 195.902344 69.5625 195.046875 71.316406 193.609375 72.398438 C 192.234375 73.476562 190.367188 73.839844 188.609375 73.34375 C 188.652344 76.335938 190.929688 78.722656 193.855469 78.96875 Z M 193.855469 78.96875 " fill-opacity="1" fill-rule="evenodd"/></g><g fill="#ffffff" fill-opacity="1"><g transform="translate(265.820239, 106.195446)"><g><path d="M 3.484375 -26.53125 L 14.0625 -26.53125 C 17.394531 -26.53125 19.972656 -25.738281 21.796875 -24.15625 C 23.628906 -22.570312 24.546875 -20.34375 24.546875 -17.46875 C 24.546875 -14.457031 23.628906 -12.125 21.796875 -10.46875 C 19.972656 -8.820312 17.394531 -8 14.0625 -8 L 7.953125 -8 L 7.953125 0 L 3.484375 0 Z M 7.953125 -22.5 L 7.953125 -12.015625 L 13.875 -12.015625 C 18.132812 -12.015625 20.265625 -13.796875 20.265625 -17.359375 C 20.265625 -20.785156 18.132812 -22.5 13.875 -22.5 Z M 7.953125 -22.5 "/></g></g></g><g fill="#ffffff" fill-opacity="1"><g transform="translate(291.315625, 106.195446)"><g><path d="M 20.3125 0 L 15.453125 -8.03125 C 15.203125 -8.007812 14.800781 -8 14.25 -8 L 7.953125 -8 L 7.953125 0 L 3.484375 0 L 3.484375 -26.53125 L 14.25 -26.53125 C 17.632812 -26.53125 20.257812 -25.738281 22.125 -24.15625 C 24 -22.570312 24.9375 -20.34375 24.9375 -17.46875 C 24.9375 -15.34375 24.460938 -13.546875 23.515625 -12.078125 C 22.566406 -10.617188 21.207031 -9.546875 19.4375 -8.859375 L 25.390625 0 Z M 7.953125 -12.015625 L 14.25 -12.015625 C 18.539062 -12.015625 20.6875 -13.796875 20.6875 -17.359375 C 20.6875 -20.785156 18.539062 -22.5 14.25 -22.5 L 7.953125 -22.5 Z M 7.953125 -12.015625 "/></g></g></g><g fill="#ffffff" fill-opacity="1"><g transform="translate(318.705167, 106.195446)"><g><path d="M 22.4375 -22.5 L 7.953125 -22.5 L 7.953125 -15.34375 L 20.921875 -15.34375 L 20.921875 -11.328125 L 7.953125 -11.328125 L 7.953125 -4.015625 L 22.890625 -4.015625 L 22.890625 0 L 3.484375 0 L 3.484375 -26.53125 L 22.4375 -26.53125 Z M 22.4375 -22.5 "/></g></g></g><g fill="#ffffff" fill-opacity="1"><g transform="translate(343.556544, 106.195446)"><g><path d="M 3.484375 -26.53125 L 14.0625 -26.53125 C 17.394531 -26.53125 19.972656 -25.738281 21.796875 -24.15625 C 23.628906 -22.570312 24.546875 -20.34375 24.546875 -17.46875 C 24.546875 -14.457031 23.628906 -12.125 21.796875 -10.46875 C 19.972656 -8.820312 17.394531 -8 14.0625 -8 L 7.953125 -8 L 7.953125 0 L 3.484375 0 Z M 7.953125 -22.5 L 7.953125 -12.015625 L 13.875 -12.015625 C 18.132812 -12.015625 20.265625 -13.796875 20.265625 -17.359375 C 20.265625 -20.785156 18.132812 -22.5 13.875 -22.5 Z M 7.953125 -22.5 "/></g></g></g><g fill="#ffffff" fill-opacity="1"><g transform="translate(369.05193, 106.195446)"><g><path d="M 20.609375 -5.984375 L 7.234375 -5.984375 L 4.703125 0 L 0.03125 0 L 11.75 -26.53125 L 16.328125 -26.53125 L 27.921875 0 L 23.15625 0 Z M 18.90625 -9.96875 L 13.90625 -21.75 L 8.90625 -9.96875 Z M 18.90625 -9.96875 "/></g></g></g><g fill="#ffffff" fill-opacity="1"><g transform="translate(397.009724, 106.195446)"><g><path d="M 7.953125 -4.046875 L 19.4375 -4.046875 L 19.4375 0 L 3.484375 0 L 3.484375 -26.53125 L 7.953125 -26.53125 Z M 7.953125 -4.046875 "/></g></g></g><g fill="#ffffff" fill-opacity="1"><g transform="translate(417.239347, 106.195446)"><g><path d="M 7.953125 0 L 3.484375 0 L 3.484375 -26.53125 L 7.953125 -26.53125 Z M 7.953125 0 "/></g></g></g><g fill="#ffffff" fill-opacity="1"><g transform="translate(428.680073, 106.195446)"><g><path d="M 3.484375 -26.53125 L 15 -26.53125 C 17.757812 -26.53125 19.929688 -25.941406 21.515625 -24.765625 C 23.109375 -23.585938 23.90625 -21.960938 23.90625 -19.890625 C 23.90625 -18.398438 23.488281 -17.128906 22.65625 -16.078125 C 21.820312 -15.035156 20.6875 -14.335938 19.25 -13.984375 C 21.019531 -13.679688 22.410156 -12.9375 23.421875 -11.75 C 24.429688 -10.5625 24.9375 -9.070312 24.9375 -7.28125 C 24.9375 -5 24.078125 -3.210938 22.359375 -1.921875 C 20.640625 -0.640625 18.273438 0 15.265625 0 L 3.484375 0 Z M 7.953125 -22.546875 L 7.953125 -15.53125 L 14.78125 -15.53125 C 16.195312 -15.53125 17.304688 -15.847656 18.109375 -16.484375 C 18.921875 -17.117188 19.328125 -17.988281 19.328125 -19.09375 C 19.328125 -20.207031 18.925781 -21.0625 18.125 -21.65625 C 17.332031 -22.25 16.21875 -22.546875 14.78125 -22.546875 Z M 7.953125 -11.59375 L 7.953125 -3.984375 L 14.78125 -3.984375 C 16.550781 -3.984375 17.921875 -4.316406 18.890625 -4.984375 C 19.859375 -5.648438 20.34375 -6.601562 20.34375 -7.84375 C 20.34375 -9.007812 19.847656 -9.925781 18.859375 -10.59375 C 17.878906 -11.257812 16.519531 -11.59375 14.78125 -11.59375 Z M 7.953125 -11.59375 "/></g></g></g></svg>