<svg xmlns="http://www.w3.org/2000/svg" xmlns:xlink="http://www.w3.org/1999/xlink" width="314" zoomAndPan="magnify" viewBox="0 0 235.5 60" height="80" preserveAspectRatio="xMidYMid meet" version="1.0"><defs><g/><clipPath id="587bdf9c1f"><path d="M 0 0.0625 L 235 0.0625 L 235 59.933594 L 0 59.933594 Z M 0 0.0625 " clip-rule="nonzero"/></clipPath><clipPath id="93aee7af38"><path d="M 0 1 L 48.75 1 L 48.75 59.933594 L 0 59.933594 Z M 0 1 " clip-rule="nonzero"/></clipPath></defs><g clip-path="url(#587bdf9c1f)"><path fill="#ffffff" d="M 0 0.0625 L 235.5 0.0625 L 235.5 67.5625 L 0 67.5625 Z M 0 0.0625 " fill-opacity="1" fill-rule="nonzero"/><path fill="#ffffff" d="M 0 0.0625 L 235.5 0.0625 L 235.5 60.0625 L 0 60.0625 Z M 0 0.0625 " fill-opacity="1" fill-rule="nonzero"/><path fill="#ffffff" d="M 0 0.0625 L 235.5 0.0625 L 235.5 60.0625 L 0 60.0625 Z M 0 0.0625 " fill-opacity="1" fill-rule="nonzero"/></g><g clip-path="url(#93aee7af38)"><path fill="#319795" d="M 20.828125 44.054688 C 29.570312 44.648438 38.277344 42.746094 45.890625 38.628906 C 47.992188 35.257812 49.191406 31.480469 49.472656 27.679688 C 42.339844 36.34375 30.226562 39.15625 19.949219 34.558594 C 9.632812 29.941406 3.78125 19.046875 5.601562 8.003906 C 1.523438 14.242188 -0.0273438 21.671875 1.113281 28.855469 L 1.113281 28.925781 C 1.453125 31.480469 2.183594 34.011719 3.34375 36.378906 L 3.34375 36.414062 C 3.417969 36.507812 3.464844 36.636719 3.5 36.71875 C 3.59375 36.867188 3.652344 37.019531 3.757812 37.160156 L 3.757812 37.195312 C 3.828125 37.3125 3.910156 37.488281 3.980469 37.605469 L 3.980469 37.640625 C 4.167969 37.929688 4.320312 38.199219 4.507812 38.511719 C 4.765625 38.921875 5.039062 39.363281 5.332031 39.761719 L 5.367188 39.796875 C 5.460938 39.914062 5.554688 40.054688 5.648438 40.167969 L 5.648438 40.203125 C 5.871094 40.496094 6.058594 40.730469 6.28125 41.019531 C 6.730469 41.546875 7.164062 42.058594 7.667969 42.582031 C 7.785156 42.699219 7.929688 42.839844 8.046875 42.957031 L 25.234375 60.019531 L 34.164062 51.15625 C 30.285156 51.566406 26.082031 51.273438 21.464844 50.28125 C 26.585938 50.621094 31.648438 50.128906 36.527344 48.8125 L 42.472656 42.945312 C 42.765625 42.640625 43.070312 42.316406 43.351562 42.011719 C 37.230469 45.277344 29.746094 45.953125 20.828125 44.054688 Z M 24.257812 23.234375 C 23.097656 26.417969 18.632812 26.640625 16.117188 24.949219 C 13.789062 23.386719 12.816406 20.457031 13.730469 17.800781 C 14.929688 18.054688 15.964844 18.835938 16.527344 19.921875 C 15.105469 16.363281 11.898438 13.835938 8.09375 13.308594 C 11.78125 19.058594 10.277344 30.011719 21.429688 28.378906 L 25.726562 32.832031 C 26.105469 33.242188 26.585938 33.429688 27.113281 33.429688 C 27.644531 33.429688 28.089844 33.242188 28.464844 32.832031 L 32.765625 28.378906 C 43.929688 30 42.449219 19.035156 46.101562 13.296875 C 42.328125 13.824219 39.085938 16.355469 37.699219 19.910156 C 38.230469 18.824219 39.273438 18.03125 40.460938 17.789062 C 41.402344 20.449219 40.425781 23.375 38.078125 24.9375 C 35.5625 26.617188 31.097656 26.40625 29.933594 23.222656 C 26.949219 14.953125 47.300781 16.109375 48.769531 7.246094 C 43.703125 11.582031 35.398438 13.765625 27.101562 13.765625 C 31.847656 13.765625 36.40625 11.210938 40.0625 6.648438 C 32.191406 0.667969 21.367188 0.105469 12.910156 5.003906 C 16.75 10.59375 21.804688 13.777344 27.113281 13.777344 C 18.820312 13.777344 10.476562 11.59375 5.414062 7.257812 C 6.90625 16.121094 27.253906 14.953125 24.257812 23.234375 Z M 26.691406 30.222656 L 24.175781 27.785156 L 27.125 24.75 L 30.050781 27.785156 L 27.574219 30.222656 C 27.3125 30.441406 26.902344 30.441406 26.691406 30.222656 Z M 35.328125 23.980469 C 33.824219 24.097656 32.4375 23.082031 32.15625 21.578125 C 31.871094 20.085938 32.789062 18.617188 34.257812 18.171875 C 34.257812 19.105469 34.703125 20.015625 35.457031 20.574219 C 36.207031 21.136719 37.183594 21.320312 38.101562 21.066406 C 38.089844 22.617188 36.878906 23.851562 35.328125 23.980469 Z M 18.878906 23.980469 C 20.417969 24.097656 21.769531 23.082031 22.050781 21.578125 C 22.332031 20.085938 21.417969 18.617188 19.949219 18.171875 C 19.949219 19.105469 19.5 20.015625 18.75 20.574219 C 18.03125 21.136719 17.058594 21.320312 16.140625 21.066406 C 16.164062 22.617188 17.351562 23.851562 18.878906 23.980469 Z M 18.878906 23.980469 " fill-opacity="1" fill-rule="evenodd"/></g><g fill="#2f3748" fill-opacity="1"><g transform="translate(60.474504, 40.188558)"><g><path d="M 1.890625 0 L 1.890625 -21.8125 L 10.5 -21.8125 C 12.15625 -21.8125 13.566406 -21.5 14.734375 -20.875 C 15.898438 -20.25 16.789062 -19.378906 17.40625 -18.265625 C 18.019531 -17.148438 18.328125 -15.867188 18.328125 -14.421875 C 18.328125 -12.972656 18.015625 -11.695312 17.390625 -10.59375 C 16.765625 -9.488281 15.859375 -8.625 14.671875 -8 C 13.492188 -7.382812 12.066406 -7.078125 10.390625 -7.078125 L 6.515625 -7.078125 L 6.515625 0 Z M 6.515625 -10.765625 L 9.640625 -10.765625 C 10.960938 -10.765625 11.945312 -11.101562 12.59375 -11.78125 C 13.25 -12.46875 13.578125 -13.347656 13.578125 -14.421875 C 13.578125 -15.515625 13.25 -16.390625 12.59375 -17.046875 C 11.945312 -17.710938 10.957031 -18.046875 9.625 -18.046875 L 6.515625 -18.046875 Z M 6.515625 -10.765625 "/></g></g></g><g fill="#2f3748" fill-opacity="1"><g transform="translate(79.898765, 40.188558)"><g><path d="M 1.8125 0 L 1.8125 -16.359375 L 6.21875 -16.359375 L 6.21875 -13.515625 L 6.375 -13.515625 C 6.675781 -14.523438 7.175781 -15.289062 7.875 -15.8125 C 8.570312 -16.332031 9.382812 -16.59375 10.3125 -16.59375 C 10.75 -16.59375 11.15625 -16.539062 11.53125 -16.4375 C 11.914062 -16.332031 12.253906 -16.1875 12.546875 -16 L 11.1875 -12.25 C 10.96875 -12.351562 10.734375 -12.441406 10.484375 -12.515625 C 10.234375 -12.597656 9.953125 -12.640625 9.640625 -12.640625 C 8.722656 -12.640625 7.945312 -12.328125 7.3125 -11.703125 C 6.675781 -11.078125 6.351562 -10.265625 6.34375 -9.265625 L 6.34375 0 Z M 1.8125 0 "/></g></g></g><g fill="#2f3748" fill-opacity="1"><g transform="translate(92.752424, 40.188558)"><g><path d="M 9.265625 0.3125 C 7.585938 0.3125 6.140625 -0.0234375 4.921875 -0.703125 C 3.710938 -1.390625 2.78125 -2.363281 2.125 -3.625 C 1.476562 -4.882812 1.15625 -6.378906 1.15625 -8.109375 C 1.15625 -9.785156 1.476562 -11.257812 2.125 -12.53125 C 2.78125 -13.8125 3.703125 -14.804688 4.890625 -15.515625 C 6.085938 -16.222656 7.488281 -16.578125 9.09375 -16.578125 C 10.53125 -16.578125 11.828125 -16.269531 12.984375 -15.65625 C 14.148438 -15.050781 15.070312 -14.128906 15.75 -12.890625 C 16.4375 -11.660156 16.78125 -10.117188 16.78125 -8.265625 L 16.78125 -7.015625 L 5.640625 -7.015625 C 5.640625 -5.785156 5.972656 -4.816406 6.640625 -4.109375 C 7.304688 -3.410156 8.207031 -3.0625 9.34375 -3.0625 C 10.101562 -3.0625 10.757812 -3.222656 11.3125 -3.546875 C 11.863281 -3.867188 12.253906 -4.34375 12.484375 -4.96875 L 16.6875 -4.6875 C 16.363281 -3.164062 15.550781 -1.953125 14.25 -1.046875 C 12.957031 -0.140625 11.296875 0.3125 9.265625 0.3125 Z M 5.640625 -9.828125 L 12.5 -9.828125 C 12.5 -10.804688 12.1875 -11.609375 11.5625 -12.234375 C 10.945312 -12.867188 10.144531 -13.1875 9.15625 -13.1875 C 8.15625 -13.1875 7.328125 -12.859375 6.671875 -12.203125 C 6.023438 -11.554688 5.679688 -10.765625 5.640625 -9.828125 Z M 5.640625 -9.828125 "/></g></g></g><g fill="#2f3748" fill-opacity="1"><g transform="translate(110.675129, 40.188558)"><g><path d="M 1.8125 6.140625 L 1.8125 -16.359375 L 6.28125 -16.359375 L 6.28125 -13.609375 L 6.484375 -13.609375 C 6.691406 -14.054688 6.984375 -14.507812 7.359375 -14.96875 C 7.734375 -15.425781 8.226562 -15.804688 8.84375 -16.109375 C 9.46875 -16.421875 10.234375 -16.578125 11.140625 -16.578125 C 12.335938 -16.578125 13.4375 -16.265625 14.4375 -15.640625 C 15.445312 -15.023438 16.253906 -14.09375 16.859375 -12.84375 C 17.460938 -11.59375 17.765625 -10.03125 17.765625 -8.15625 C 17.765625 -6.332031 17.46875 -4.789062 16.875 -3.53125 C 16.289062 -2.28125 15.5 -1.332031 14.5 -0.6875 C 13.5 -0.0507812 12.378906 0.265625 11.140625 0.265625 C 10.253906 0.265625 9.503906 0.117188 8.890625 -0.171875 C 8.273438 -0.460938 7.773438 -0.828125 7.390625 -1.265625 C 7.003906 -1.710938 6.703125 -2.164062 6.484375 -2.625 L 6.34375 -2.625 L 6.34375 6.140625 Z M 6.25 -8.1875 C 6.25 -6.726562 6.546875 -5.554688 7.140625 -4.671875 C 7.742188 -3.785156 8.59375 -3.34375 9.6875 -3.34375 C 10.8125 -3.34375 11.664062 -3.789062 12.25 -4.6875 C 12.84375 -5.59375 13.140625 -6.757812 13.140625 -8.1875 C 13.140625 -9.601562 12.84375 -10.753906 12.25 -11.640625 C 11.664062 -12.523438 10.8125 -12.96875 9.6875 -12.96875 C 8.59375 -12.96875 7.742188 -12.535156 7.140625 -11.671875 C 6.546875 -10.804688 6.25 -9.644531 6.25 -8.1875 Z M 6.25 -8.1875 "/></g></g></g><g fill="#2f3748" fill-opacity="1"><g transform="translate(129.641467, 40.188558)"><g><path d="M 6.484375 0.3125 C 4.921875 0.3125 3.625 -0.09375 2.59375 -0.90625 C 1.5625 -1.726562 1.046875 -2.953125 1.046875 -4.578125 C 1.046875 -5.796875 1.332031 -6.75 1.90625 -7.4375 C 2.476562 -8.132812 3.234375 -8.644531 4.171875 -8.96875 C 5.109375 -9.289062 6.113281 -9.503906 7.1875 -9.609375 C 8.613281 -9.753906 9.628906 -9.90625 10.234375 -10.0625 C 10.847656 -10.21875 11.15625 -10.554688 11.15625 -11.078125 L 11.15625 -11.140625 C 11.15625 -11.816406 10.941406 -12.335938 10.515625 -12.703125 C 10.097656 -13.078125 9.5 -13.265625 8.71875 -13.265625 C 7.90625 -13.265625 7.253906 -13.085938 6.765625 -12.734375 C 6.285156 -12.378906 5.96875 -11.925781 5.8125 -11.375 L 1.625 -11.71875 C 1.9375 -13.207031 2.710938 -14.390625 3.953125 -15.265625 C 5.191406 -16.140625 6.789062 -16.578125 8.75 -16.578125 C 9.957031 -16.578125 11.09375 -16.382812 12.15625 -16 C 13.21875 -15.613281 14.070312 -15.015625 14.71875 -14.203125 C 15.363281 -13.390625 15.6875 -12.332031 15.6875 -11.03125 L 15.6875 0 L 11.390625 0 L 11.390625 -2.265625 L 11.265625 -2.265625 C 10.867188 -1.503906 10.269531 -0.882812 9.46875 -0.40625 C 8.675781 0.0703125 7.679688 0.3125 6.484375 0.3125 Z M 7.78125 -2.828125 C 8.769531 -2.828125 9.582031 -3.113281 10.21875 -3.6875 C 10.863281 -4.269531 11.1875 -4.988281 11.1875 -5.84375 L 11.1875 -7.578125 C 11.007812 -7.460938 10.734375 -7.359375 10.359375 -7.265625 C 9.984375 -7.171875 9.582031 -7.085938 9.15625 -7.015625 C 8.738281 -6.953125 8.363281 -6.894531 8.03125 -6.84375 C 7.238281 -6.738281 6.597656 -6.515625 6.109375 -6.171875 C 5.617188 -5.835938 5.375 -5.351562 5.375 -4.71875 C 5.375 -4.09375 5.597656 -3.617188 6.046875 -3.296875 C 6.503906 -2.984375 7.082031 -2.828125 7.78125 -2.828125 Z M 7.78125 -2.828125 "/></g></g></g><g fill="#2f3748" fill-opacity="1"><g transform="translate(147.042367, 40.188558)"><g><path d="M 6.34375 -21.8125 L 6.34375 0 L 1.8125 0 L 1.8125 -21.8125 Z M 6.34375 -21.8125 "/></g></g></g><g fill="#2f3748" fill-opacity="1"><g transform="translate(155.199703, 40.188558)"><g><path d="M 1.8125 0 L 1.8125 -16.359375 L 6.34375 -16.359375 L 6.34375 0 Z M 4.09375 -18.46875 C 3.414062 -18.46875 2.835938 -18.691406 2.359375 -19.140625 C 1.878906 -19.597656 1.640625 -20.144531 1.640625 -20.78125 C 1.640625 -21.40625 1.878906 -21.941406 2.359375 -22.390625 C 2.835938 -22.835938 3.414062 -23.0625 4.09375 -23.0625 C 4.757812 -23.0625 5.332031 -22.835938 5.8125 -22.390625 C 6.300781 -21.941406 6.546875 -21.40625 6.546875 -20.78125 C 6.546875 -20.144531 6.300781 -19.597656 5.8125 -19.140625 C 5.332031 -18.691406 4.757812 -18.46875 4.09375 -18.46875 Z M 4.09375 -18.46875 "/></g></g></g><g fill="#2f3748" fill-opacity="1"><g transform="translate(163.35704, 40.188558)"><g><path d="M 1.890625 0 L 1.890625 -21.8125 L 6.4375 -21.8125 L 6.4375 -13.609375 L 6.578125 -13.609375 C 6.773438 -14.054688 7.0625 -14.507812 7.4375 -14.96875 C 7.820312 -15.425781 8.320312 -15.804688 8.9375 -16.109375 C 9.550781 -16.421875 10.316406 -16.578125 11.234375 -16.578125 C 12.429688 -16.578125 13.53125 -16.265625 14.53125 -15.640625 C 15.53125 -15.023438 16.332031 -14.09375 16.9375 -12.84375 C 17.550781 -11.59375 17.859375 -10.03125 17.859375 -8.15625 C 17.859375 -6.332031 17.5625 -4.789062 16.96875 -3.53125 C 16.382812 -2.28125 15.585938 -1.332031 14.578125 -0.6875 C 13.578125 -0.0507812 12.457031 0.265625 11.21875 0.265625 C 10.332031 0.265625 9.582031 0.117188 8.96875 -0.171875 C 8.351562 -0.460938 7.851562 -0.828125 7.46875 -1.265625 C 7.082031 -1.710938 6.785156 -2.164062 6.578125 -2.625 L 6.375 -2.625 L 6.375 0 Z M 6.34375 -8.1875 C 6.34375 -6.726562 6.640625 -5.554688 7.234375 -4.671875 C 7.835938 -3.785156 8.6875 -3.34375 9.78125 -3.34375 C 10.894531 -3.34375 11.742188 -3.789062 12.328125 -4.6875 C 12.921875 -5.59375 13.21875 -6.757812 13.21875 -8.1875 C 13.21875 -9.601562 12.925781 -10.753906 12.34375 -11.640625 C 11.757812 -12.523438 10.90625 -12.96875 9.78125 -12.96875 C 8.675781 -12.96875 7.828125 -12.535156 7.234375 -11.671875 C 6.640625 -10.804688 6.34375 -9.644531 6.34375 -8.1875 Z M 6.34375 -8.1875 "/></g></g></g></svg>