<svg xmlns="http://www.w3.org/2000/svg" xmlns:xlink="http://www.w3.org/1999/xlink" width="74" zoomAndPan="magnify" viewBox="0 0 55.5 59.249999" height="79" preserveAspectRatio="xMidYMid meet" version="1.0"><defs><clipPath id="8771eb1e75"><path d="M 0.101562 0 L 54.90625 0 L 54.90625 58.507812 L 0.101562 58.507812 Z M 0.101562 0 " clip-rule="nonzero"/></clipPath><clipPath id="072af1ad6f"><path d="M 4 1 L 52.148438 1 L 52.148438 58.507812 L 4 58.507812 Z M 4 1 " clip-rule="nonzero"/></clipPath></defs><g clip-path="url(#8771eb1e75)"><path fill="#ffffff" d="M 0.101562 0 L 55.398438 0 L 55.398438 65.761719 L 0.101562 65.761719 Z M 0.101562 0 " fill-opacity="1" fill-rule="nonzero"/><path fill="#ffffff" d="M 0.101562 0 L 55.398438 0 L 55.398438 59.035156 L 0.101562 59.035156 Z M 0.101562 0 " fill-opacity="1" fill-rule="nonzero"/><path fill="#ffffff" d="M 0.101562 0 L 55.398438 0 L 55.398438 59.035156 L 0.101562 59.035156 Z M 0.101562 0 " fill-opacity="1" fill-rule="nonzero"/></g><g clip-path="url(#072af1ad6f)"><path fill="#ffffff" d="M 24.039062 43.285156 C 32.617188 43.871094 41.160156 42 48.628906 37.949219 C 50.695312 34.632812 51.871094 30.914062 52.148438 27.171875 C 45.148438 35.699219 33.261719 38.464844 23.171875 33.941406 C 13.050781 29.398438 7.308594 18.679688 9.09375 7.808594 C 5.09375 13.949219 3.574219 21.261719 4.691406 28.332031 L 4.691406 28.398438 C 5.023438 30.914062 5.738281 33.402344 6.882812 35.734375 L 6.882812 35.765625 C 6.949219 35.859375 6.996094 35.984375 7.03125 36.066406 C 7.125 36.214844 7.179688 36.363281 7.285156 36.503906 L 7.285156 36.535156 C 7.355469 36.652344 7.433594 36.824219 7.503906 36.9375 L 7.503906 36.972656 C 7.6875 37.257812 7.839844 37.523438 8.023438 37.832031 C 8.277344 38.234375 8.542969 38.671875 8.832031 39.0625 L 8.863281 39.097656 C 8.957031 39.210938 9.050781 39.347656 9.140625 39.464844 L 9.140625 39.496094 C 9.359375 39.785156 9.546875 40.015625 9.765625 40.300781 C 10.203125 40.816406 10.628906 41.324219 11.125 41.839844 C 11.238281 41.953125 11.378906 42.089844 11.492188 42.207031 L 28.359375 58.996094 L 37.125 50.273438 C 33.320312 50.675781 29.191406 50.390625 24.660156 49.414062 C 29.6875 49.746094 34.65625 49.265625 39.441406 47.96875 L 45.273438 42.195312 C 45.5625 41.894531 45.863281 41.574219 46.140625 41.277344 C 40.132812 44.488281 32.789062 45.15625 24.039062 43.285156 Z M 27.40625 22.796875 C 26.261719 25.933594 21.882812 26.148438 19.414062 24.484375 C 17.132812 22.949219 16.175781 20.066406 17.074219 17.449219 C 18.25 17.703125 19.265625 18.472656 19.816406 19.539062 C 18.421875 16.039062 15.273438 13.546875 11.539062 13.03125 C 15.160156 18.691406 13.683594 29.464844 24.625 27.859375 L 28.84375 32.242188 C 29.214844 32.644531 29.6875 32.828125 30.207031 32.828125 C 30.726562 32.828125 31.164062 32.644531 31.53125 32.242188 L 35.75 27.859375 C 46.703125 29.457031 45.253906 18.667969 48.839844 13.019531 C 45.136719 13.535156 41.953125 16.027344 40.59375 19.527344 C 41.113281 18.460938 42.140625 17.679688 43.304688 17.4375 C 44.226562 20.054688 43.269531 22.9375 40.964844 24.472656 C 38.496094 26.125 34.113281 25.921875 32.972656 22.785156 C 30.042969 14.648438 50.015625 15.785156 51.457031 7.0625 C 46.484375 11.332031 38.335938 13.480469 30.195312 13.480469 C 34.851562 13.480469 39.324219 10.964844 42.910156 6.476562 C 35.1875 0.589844 24.566406 0.0390625 16.265625 4.859375 C 20.035156 10.359375 24.996094 13.492188 30.207031 13.492188 C 22.066406 13.492188 13.878906 11.34375 8.910156 7.074219 C 10.375 15.796875 30.34375 14.648438 27.40625 22.796875 Z M 29.789062 29.671875 L 27.324219 27.273438 L 30.21875 24.289062 L 33.089844 27.273438 L 30.65625 29.671875 C 30.402344 29.890625 30 29.890625 29.789062 29.671875 Z M 38.265625 23.53125 C 36.789062 23.648438 35.429688 22.648438 35.152344 21.167969 C 34.875 19.699219 35.773438 18.253906 37.214844 17.816406 C 37.214844 18.734375 37.652344 19.628906 38.390625 20.183594 C 39.128906 20.734375 40.085938 20.917969 40.984375 20.664062 C 40.976562 22.191406 39.789062 23.40625 38.265625 23.53125 Z M 22.125 23.53125 C 23.632812 23.648438 24.960938 22.648438 25.238281 21.167969 C 25.511719 19.699219 24.613281 18.253906 23.171875 17.816406 C 23.171875 18.734375 22.734375 19.628906 21.996094 20.183594 C 21.292969 20.734375 20.335938 20.917969 19.4375 20.664062 C 19.460938 22.191406 20.625 23.40625 22.125 23.53125 Z M 22.125 23.53125 " fill-opacity="1" fill-rule="evenodd"/></g></svg>